<svg width="57" height="57" viewBox="0 0 57 57" fill="none" xmlns="http://www.w3.org/2000/svg">
<rect width="57" height="57" rx="9.5" fill="#003366"/>
<path d="M35.9219 27.0759V23.4531H36.6641L37.1187 24.3623C37.6985 25.5266 39.0762 26.0508 40.2869 25.5684C41.2378 25.188 41.8594 24.2695 41.8594 23.2444V19.7422C41.8594 18.8562 41.4697 18.0583 40.8528 17.5156H41.1172C41.5254 17.5156 41.8594 17.1816 41.8594 16.7734C41.8594 16.3652 41.5254 16.0312 41.1172 16.0312H37.4062H35.9219C32.6423 16.0312 29.9844 18.6892 29.9844 21.9688H25.5312H24.5664H22.043C20.6189 21.9688 19.3711 22.7249 18.6799 23.8613C16.6807 24.1257 15.1406 25.8374 15.1406 27.9063V30.5039C15.1406 31.1209 15.637 31.6172 16.2539 31.6172C16.8708 31.6172 17.3672 31.1209 17.3672 30.5039V27.9063C17.3672 27.2847 17.6733 26.7373 18.1418 26.3987C18.2161 27.0017 18.4341 27.5769 18.7727 28.0872L20.0808 30.054C20.4658 30.6292 20.3777 31.3853 20.0251 31.9836C19.2598 33.2825 19.0696 34.8689 19.5613 36.3394L20.373 38.77C20.5771 39.3777 21.1431 39.7859 21.7832 39.7859H23.3464C24.3577 39.7859 25.0767 38.7932 24.7566 37.833L23.7917 34.9338C23.6943 34.637 23.7686 34.3123 23.9912 34.0896L24.5803 33.5005C25.1926 32.8882 25.5359 32.0579 25.5359 31.1951C25.5359 31.0884 25.5312 30.9817 25.522 30.875L29.4185 31.9883C29.6086 32.0439 29.7988 32.0857 29.989 32.1182V38.2969C29.989 39.1179 30.6523 39.7813 31.4734 39.7813H32.9578C33.7788 39.7813 34.4421 39.1179 34.4421 38.2969V30.6755C35.3328 29.7849 35.9033 28.5557 35.9265 27.1641V27.0759H35.9219ZM38.1484 19C38.3453 19 38.5341 19.0782 38.6732 19.2174C38.8124 19.3566 38.8906 19.5453 38.8906 19.7422C38.8906 19.939 38.8124 20.1278 38.6732 20.267C38.5341 20.4062 38.3453 20.4844 38.1484 20.4844C37.9516 20.4844 37.7628 20.4062 37.6236 20.267C37.4844 20.1278 37.4062 19.939 37.4062 19.7422C37.4062 19.5453 37.4844 19.3566 37.6236 19.2174C37.7628 19.0782 37.9516 19 38.1484 19Z" fill="white"/>
</svg>
