<svg width="86" height="86" viewBox="0 0 86 86" fill="none" xmlns="http://www.w3.org/2000/svg">
<path d="M60.9167 71.6654C64.8747 71.6654 68.0833 68.4567 68.0833 64.4987C68.0833 60.5407 64.8747 57.332 60.9167 57.332C56.9586 57.332 53.75 60.5407 53.75 64.4987C53.75 68.4567 56.9586 71.6654 60.9167 71.6654Z" stroke="black" stroke-width="5.375"/>
<path d="M25.0807 71.6654C29.0388 71.6654 32.2474 68.4567 32.2474 64.4987C32.2474 60.5407 29.0388 57.332 25.0807 57.332C21.1227 57.332 17.9141 60.5407 17.9141 64.4987C17.9141 68.4567 21.1227 71.6654 25.0807 71.6654Z" stroke="black" stroke-width="5.375"/>
<path d="M17.9141 64.3984C13.9831 64.2049 11.5357 63.6208 9.78706 61.8757C8.0384 60.1306 7.4579 57.6796 7.2644 53.7487M32.2474 64.4987H53.7474M68.0807 64.3984C72.0116 64.2049 74.4591 63.6208 76.2077 61.8757C78.8307 59.2491 78.8307 55.028 78.8307 46.582V39.4154H61.9891C59.3195 39.4154 57.9865 39.4154 56.9079 39.0642C55.8324 38.7147 54.8548 38.1156 54.0551 37.316C53.2555 36.5163 52.6564 35.5387 52.3069 34.4632C51.9557 33.3846 51.9557 32.0516 51.9557 29.382C51.9557 25.3794 51.9557 23.3799 51.429 21.7603C50.9047 20.147 50.0061 18.6806 48.8066 17.4811C47.6071 16.2816 46.1408 15.383 44.5275 14.8588C42.9078 14.332 40.9083 14.332 36.9057 14.332H7.16406M7.16406 28.6654H28.6641M7.16406 39.4154H21.4974" stroke="black" stroke-width="5.375" stroke-linecap="round" stroke-linejoin="round"/>
<path d="M51.9531 21.5H58.4784C63.6957 21.5 66.3008 21.5 68.4221 22.7685C70.547 24.0334 71.7833 26.3303 74.2558 30.9242L78.8281 39.4167" stroke="black" stroke-width="5.375" stroke-linecap="round" stroke-linejoin="round"/>
</svg>
