<svg width="56" height="56" viewBox="0 0 56 56" fill="none" xmlns="http://www.w3.org/2000/svg">
<path d="M31.0206 33.467H54.2262M31.0206 42.6232H54.2262M31.0206 51.7795H54.2262M4.16712 4.16699H22.4796V22.4795H4.16712V4.16699ZM41.9861 5.38783L51.7528 23.0899H32.2194L41.9861 5.38783ZM2.94629 42.6232C2.94629 45.3754 4.03959 48.0149 5.98567 49.9609C7.93175 51.907 10.5712 53.0003 13.3234 53.0003C16.0755 53.0003 18.715 51.907 20.6611 49.9609C22.6072 48.0149 23.7005 45.3754 23.7005 42.6232C23.7005 39.8711 22.6072 37.2316 20.6611 35.2855C18.715 33.3395 16.0755 32.2462 13.3234 32.2462C10.5712 32.2462 7.93175 33.3395 5.98567 35.2855C4.03959 37.2316 2.94629 39.8711 2.94629 42.6232Z" stroke="black" stroke-width="3.6625"/>
</svg>
